<svg height="2638" width="720" xmlns="http://www.w3.org/2000/svg">
<rect height="2638" fill="#555" width="720"></rect>
<text fill="#7f7" font-family="Courier New" font-size="12" xml:space="preserve">
<tspan x="10" y="26">32 megabytes installed</tspan>
<tspan x="10" y="42"></tspan>
<tspan x="10" y="58">node_modules</tspan>
<tspan x="10" y="74">└─┬ esdoc@0.5.2 </tspan>
<tspan x="10" y="90">  ├─┬ babel-generator@6.11.4 </tspan>
<tspan x="10" y="106">  │ ├── babel-messages@6.23.0 </tspan>
<tspan x="10" y="122">  │ ├─┬ babel-runtime@6.23.0 </tspan>
<tspan x="10" y="138">  │ │ ├── core-js@2.4.1 </tspan>
<tspan x="10" y="154">  │ │ └── regenerator-runtime@0.10.3 </tspan>
<tspan x="10" y="170">  │ ├─┬ babel-types@6.24.1 </tspan>
<tspan x="10" y="186">  │ │ ├── esutils@2.0.2 </tspan>
<tspan x="10" y="202">  │ │ └── to-fast-properties@1.0.2 </tspan>
<tspan x="10" y="218">  │ ├─┬ detect-indent@3.0.1 </tspan>
<tspan x="10" y="234">  │ │ ├── get-stdin@4.0.1 </tspan>
<tspan x="10" y="250">  │ │ └─┬ repeating@1.1.3 </tspan>
<tspan x="10" y="266">  │ │   └─┬ is-finite@1.0.2 </tspan>
<tspan x="10" y="282">  │ │     └── number-is-nan@1.0.1 </tspan>
<tspan x="10" y="298">  │ ├── lodash@4.17.4 </tspan>
<tspan x="10" y="314">  │ └── source-map@0.5.6 </tspan>
<tspan x="10" y="330">  ├─┬ babel-traverse@6.12.0 </tspan>
<tspan x="10" y="346">  │ ├─┬ babel-code-frame@6.22.0 </tspan>
<tspan x="10" y="362">  │ │ ├─┬ chalk@1.1.3 </tspan>
<tspan x="10" y="378">  │ │ │ ├── ansi-styles@2.2.1 </tspan>
<tspan x="10" y="394">  │ │ │ ├── escape-string-regexp@1.0.5 </tspan>
<tspan x="10" y="410">  │ │ │ ├─┬ has-ansi@2.0.0 </tspan>
<tspan x="10" y="426">  │ │ │ │ └── ansi-regex@2.1.1 </tspan>
<tspan x="10" y="442">  │ │ │ ├── strip-ansi@3.0.1 </tspan>
<tspan x="10" y="458">  │ │ │ └── supports-color@2.0.0 </tspan>
<tspan x="10" y="474">  │ │ └── js-tokens@3.0.1 </tspan>
<tspan x="10" y="490">  │ ├─┬ debug@2.6.4 </tspan>
<tspan x="10" y="506">  │ │ └── ms@0.7.3 </tspan>
<tspan x="10" y="522">  │ ├── globals@8.18.0 </tspan>
<tspan x="10" y="538">  │ └─┬ invariant@2.2.2 </tspan>
<tspan x="10" y="554">  │   └── loose-envify@1.3.1 </tspan>
<tspan x="10" y="570">  ├── babylon@6.14.1 </tspan>
<tspan x="10" y="586">  ├─┬ cheerio@0.22.0 </tspan>
<tspan x="10" y="602">  │ ├─┬ css-select@1.2.0 </tspan>
<tspan x="10" y="618">  │ │ ├── boolbase@1.0.0 </tspan>
<tspan x="10" y="634">  │ │ ├── css-what@2.1.0 </tspan>
<tspan x="10" y="650">  │ │ ├── domutils@1.5.1 </tspan>
<tspan x="10" y="666">  │ │ └── nth-check@1.0.1 </tspan>
<tspan x="10" y="682">  │ ├─┬ dom-serializer@0.1.0 </tspan>
<tspan x="10" y="698">  │ │ └── domelementtype@1.1.3 </tspan>
<tspan x="10" y="714">  │ ├── entities@1.1.1 </tspan>
<tspan x="10" y="730">  │ ├─┬ htmlparser2@3.9.2 </tspan>
<tspan x="10" y="746">  │ │ ├── domelementtype@1.3.0 </tspan>
<tspan x="10" y="762">  │ │ ├── domhandler@2.3.0 </tspan>
<tspan x="10" y="778">  │ │ ├── inherits@2.0.3 </tspan>
<tspan x="10" y="794">  │ │ └─┬ readable-stream@2.2.9 </tspan>
<tspan x="10" y="810">  │ │   ├── buffer-shims@1.0.0 </tspan>
<tspan x="10" y="826">  │ │   ├── core-util-is@1.0.2 </tspan>
<tspan x="10" y="842">  │ │   ├── isarray@1.0.0 </tspan>
<tspan x="10" y="858">  │ │   ├── process-nextick-args@1.0.7 </tspan>
<tspan x="10" y="874">  │ │   ├── string_decoder@1.0.0 </tspan>
<tspan x="10" y="890">  │ │   └── util-deprecate@1.0.2 </tspan>
<tspan x="10" y="906">  │ ├── lodash.assignin@4.2.0 </tspan>
<tspan x="10" y="922">  │ ├── lodash.bind@4.2.1 </tspan>
<tspan x="10" y="938">  │ ├── lodash.defaults@4.2.0 </tspan>
<tspan x="10" y="954">  │ ├── lodash.filter@4.6.0 </tspan>
<tspan x="10" y="970">  │ ├── lodash.flatten@4.4.0 </tspan>
<tspan x="10" y="986">  │ ├── lodash.foreach@4.5.0 </tspan>
<tspan x="10" y="1002">  │ ├── lodash.map@4.6.0 </tspan>
<tspan x="10" y="1018">  │ ├── lodash.merge@4.6.0 </tspan>
<tspan x="10" y="1034">  │ ├── lodash.pick@4.4.0 </tspan>
<tspan x="10" y="1050">  │ ├── lodash.reduce@4.6.0 </tspan>
<tspan x="10" y="1066">  │ ├── lodash.reject@4.6.0 </tspan>
<tspan x="10" y="1082">  │ └── lodash.some@4.6.0 </tspan>
<tspan x="10" y="1098">  ├── color-logger@0.0.3 </tspan>
<tspan x="10" y="1114">  ├── escape-html@1.0.3 </tspan>
<tspan x="10" y="1130">  ├─┬ fs-extra@1.0.0 </tspan>
<tspan x="10" y="1146">  │ ├── graceful-fs@4.1.11 </tspan>
<tspan x="10" y="1162">  │ ├── jsonfile@2.4.0 </tspan>
<tspan x="10" y="1178">  │ └── klaw@1.3.1 </tspan>
<tspan x="10" y="1194">  ├─┬ ice-cap@0.0.4 </tspan>
<tspan x="10" y="1210">  │ └─┬ cheerio@0.20.0 </tspan>
<tspan x="10" y="1226">  │   ├─┬ htmlparser2@3.8.3 </tspan>
<tspan x="10" y="1242">  │   │ ├── entities@1.0.0 </tspan>
<tspan x="10" y="1258">  │   │ └─┬ readable-stream@1.1.14 </tspan>
<tspan x="10" y="1274">  │   │   ├── isarray@0.0.1 </tspan>
<tspan x="10" y="1290">  │   │   └── string_decoder@0.10.31 </tspan>
<tspan x="10" y="1306">  │   └─┬ jsdom@7.2.2 </tspan>
<tspan x="10" y="1322">  │     ├── abab@1.0.3 </tspan>
<tspan x="10" y="1338">  │     ├── acorn@2.7.0 </tspan>
<tspan x="10" y="1354">  │     ├── acorn-globals@1.0.9 </tspan>
<tspan x="10" y="1370">  │     ├── cssom@0.3.2 </tspan>
<tspan x="10" y="1386">  │     ├── cssstyle@0.2.37 </tspan>
<tspan x="10" y="1402">  │     ├─┬ escodegen@1.8.1 </tspan>
<tspan x="10" y="1418">  │     │ ├── esprima@2.7.3 </tspan>
<tspan x="10" y="1434">  │     │ ├── estraverse@1.9.3 </tspan>
<tspan x="10" y="1450">  │     │ ├─┬ optionator@0.8.2 </tspan>
<tspan x="10" y="1466">  │     │ │ ├── deep-is@0.1.3 </tspan>
<tspan x="10" y="1482">  │     │ │ ├── fast-levenshtein@2.0.6 </tspan>
<tspan x="10" y="1498">  │     │ │ ├── levn@0.3.0 </tspan>
<tspan x="10" y="1514">  │     │ │ ├── prelude-ls@1.1.2 </tspan>
<tspan x="10" y="1530">  │     │ │ ├── type-check@0.3.2 </tspan>
<tspan x="10" y="1546">  │     │ │ └── wordwrap@1.0.0 </tspan>
<tspan x="10" y="1562">  │     │ └─┬ source-map@0.2.0 </tspan>
<tspan x="10" y="1578">  │     │   └── amdefine@1.0.1 </tspan>
<tspan x="10" y="1594">  │     ├── nwmatcher@1.3.9 </tspan>
<tspan x="10" y="1610">  │     ├── parse5@1.5.1 </tspan>
<tspan x="10" y="1626">  │     ├─┬ request@2.81.0 </tspan>
<tspan x="10" y="1642">  │     │ ├── aws-sign2@0.6.0 </tspan>
<tspan x="10" y="1658">  │     │ ├── aws4@1.6.0 </tspan>
<tspan x="10" y="1674">  │     │ ├── caseless@0.12.0 </tspan>
<tspan x="10" y="1690">  │     │ ├─┬ combined-stream@1.0.5 </tspan>
<tspan x="10" y="1706">  │     │ │ └── delayed-stream@1.0.0 </tspan>
<tspan x="10" y="1722">  │     │ ├── extend@3.0.0 </tspan>
<tspan x="10" y="1738">  │     │ ├── forever-agent@0.6.1 </tspan>
<tspan x="10" y="1754">  │     │ ├─┬ form-data@2.1.4 </tspan>
<tspan x="10" y="1770">  │     │ │ └── asynckit@0.4.0 </tspan>
<tspan x="10" y="1786">  │     │ ├─┬ har-validator@4.2.1 </tspan>
<tspan x="10" y="1802">  │     │ │ ├─┬ ajv@4.11.7 </tspan>
<tspan x="10" y="1818">  │     │ │ │ ├── co@4.6.0 </tspan>
<tspan x="10" y="1834">  │     │ │ │ └─┬ json-stable-stringify@1.0.1 </tspan>
<tspan x="10" y="1850">  │     │ │ │   └── jsonify@0.0.0 </tspan>
<tspan x="10" y="1866">  │     │ │ └── har-schema@1.0.5 </tspan>
<tspan x="10" y="1882">  │     │ ├─┬ hawk@3.1.3 </tspan>
<tspan x="10" y="1898">  │     │ │ ├── boom@2.10.1 </tspan>
<tspan x="10" y="1914">  │     │ │ ├── cryptiles@2.0.5 </tspan>
<tspan x="10" y="1930">  │     │ │ ├── hoek@2.16.3 </tspan>
<tspan x="10" y="1946">  │     │ │ └── sntp@1.0.9 </tspan>
<tspan x="10" y="1962">  │     │ ├─┬ http-signature@1.1.1 </tspan>
<tspan x="10" y="1978">  │     │ │ ├── assert-plus@0.2.0 </tspan>
<tspan x="10" y="1994">  │     │ │ ├─┬ jsprim@1.4.0 </tspan>
<tspan x="10" y="2010">  │     │ │ │ ├── assert-plus@1.0.0 </tspan>
<tspan x="10" y="2026">  │     │ │ │ ├── extsprintf@1.0.2 </tspan>
<tspan x="10" y="2042">  │     │ │ │ ├── json-schema@0.2.3 </tspan>
<tspan x="10" y="2058">  │     │ │ │ └── verror@1.3.6 </tspan>
<tspan x="10" y="2074">  │     │ │ └─┬ sshpk@1.13.0 </tspan>
<tspan x="10" y="2090">  │     │ │   ├── asn1@0.2.3 </tspan>
<tspan x="10" y="2106">  │     │ │   ├── assert-plus@1.0.0 </tspan>
<tspan x="10" y="2122">  │     │ │   ├── bcrypt-pbkdf@1.0.1 </tspan>
<tspan x="10" y="2138">  │     │ │   ├─┬ dashdash@1.14.1 </tspan>
<tspan x="10" y="2154">  │     │ │   │ └── assert-plus@1.0.0 </tspan>
<tspan x="10" y="2170">  │     │ │   ├── ecc-jsbn@0.1.1 </tspan>
<tspan x="10" y="2186">  │     │ │   ├─┬ getpass@0.1.6 </tspan>
<tspan x="10" y="2202">  │     │ │   │ └── assert-plus@1.0.0 </tspan>
<tspan x="10" y="2218">  │     │ │   ├── jodid25519@1.0.2 </tspan>
<tspan x="10" y="2234">  │     │ │   ├── jsbn@0.1.1 </tspan>
<tspan x="10" y="2250">  │     │ │   └── tweetnacl@0.14.5 </tspan>
<tspan x="10" y="2266">  │     │ ├── is-typedarray@1.0.0 </tspan>
<tspan x="10" y="2282">  │     │ ├── isstream@0.1.2 </tspan>
<tspan x="10" y="2298">  │     │ ├── json-stringify-safe@5.0.1 </tspan>
<tspan x="10" y="2314">  │     │ ├─┬ mime-types@2.1.15 </tspan>
<tspan x="10" y="2330">  │     │ │ └── mime-db@1.27.0 </tspan>
<tspan x="10" y="2346">  │     │ ├── oauth-sign@0.8.2 </tspan>
<tspan x="10" y="2362">  │     │ ├── performance-now@0.2.0 </tspan>
<tspan x="10" y="2378">  │     │ ├── qs@6.4.0 </tspan>
<tspan x="10" y="2394">  │     │ ├── safe-buffer@5.0.1 </tspan>
<tspan x="10" y="2410">  │     │ ├── stringstream@0.0.5 </tspan>
<tspan x="10" y="2426">  │     │ ├── tunnel-agent@0.6.0 </tspan>
<tspan x="10" y="2442">  │     │ └── uuid@3.0.1 </tspan>
<tspan x="10" y="2458">  │     ├── sax@1.2.2 </tspan>
<tspan x="10" y="2474">  │     ├── symbol-tree@3.2.2 </tspan>
<tspan x="10" y="2490">  │     ├─┬ tough-cookie@2.3.2 </tspan>
<tspan x="10" y="2506">  │     │ └── punycode@1.4.1 </tspan>
<tspan x="10" y="2522">  │     ├── webidl-conversions@2.0.1 </tspan>
<tspan x="10" y="2538">  │     ├─┬ whatwg-url-compat@0.6.5 </tspan>
<tspan x="10" y="2554">  │     │ └── tr46@0.0.3 </tspan>
<tspan x="10" y="2570">  │     └── xml-name-validator@2.0.1 </tspan>
<tspan x="10" y="2586">  ├── marked@0.3.6 </tspan>
<tspan x="10" y="2602">  ├── minimist@1.2.0 </tspan>
<tspan x="10" y="2618">  └── taffydb@2.7.2</tspan>
</text>
</svg>
